HIERARCHY
ROOT Hips
{
  OFFSET -4.35178 90.3298 111.633
  CHANNELS 6 Xposition Yposition Zposition Zrotation Xrotation Yrotation
  JOINT LeftUpLeg
  {
    OFFSET 0.103456 1.85784 10.5485
    CHANNELS 6 Xposition Yposition Zposition Zrotation Xrotation Yrotation
    JOINT LeftLeg
    {
      OFFSET 43.5 -4.2e-05 0
      CHANNELS 6 Xposition Yposition Zposition Zrotation Xrotation Yrotation
      JOINT LeftFoot
      {
        OFFSET 42.3722 1.9e-05 0
        CHANNELS 6 Xposition Yposition Zposition Zrotation Xrotation Yrotation
        JOINT LeftToe
        {
          OFFSET 17.3 0 0
          CHANNELS 6 Xposition Yposition Zposition Zrotation Xrotation Yrotation
          End Site
          {
            OFFSET 0 0 0
          }
        }
      }
    }
  }
  JOINT RightUpLeg
  {
    OFFSET 0.103456 1.85782 -10.5485
    CHANNELS 6 Xposition Yposition Zposition Zrotation Xrotation Yrotation
    JOINT RightLeg
    {
      OFFSET 43.5 -2.7e-05 0
      CHANNELS 6 Xposition Yposition Zposition Zrotation Xrotation Yrotation
      JOINT RightFoot
      {
        OFFSET 42.3723 0 0
        CHANNELS 6 Xposition Yposition Zposition Zrotation Xrotation Yrotation
        JOINT RightToe
        {
          OFFSET 17.3 0 1.7e-05
          CHANNELS 6 Xposition Yposition Zposition Zrotation Xrotation Yrotation
          End Site
          {
            OFFSET 0 0 0
          }
        }
      }
    }
  }
  JOINT Spine
  {
    OFFSET 6.90197 -2.60373 0
    CHANNELS 6 Xposition Yposition Zposition Zrotation Xrotation Yrotation
    JOINT Spine1
    {
      OFFSET 12.5881 0 0
      CHANNELS 6 Xposition Yposition Zposition Zrotation Xrotation Yrotation
      JOINT Spine2
      {
        OFFSET 12.3432 -1.8e-05 0
        CHANNELS 6 Xposition Yposition Zposition Zrotation Xrotation Yrotation
        JOINT Neck
        {
          OFFSET 25.8329 2.3e-05 0
          CHANNELS 6 Xposition Yposition Zposition Zrotation Xrotation Yrotation
          JOINT Head
          {
            OFFSET 11.7666 0 0
            CHANNELS 6 Xposition Yposition Zposition Zrotation Xrotation Yrotation
            End Site
            {
              OFFSET 0 0 0
            }
          }
        }
        JOINT LeftShoulder
        {
          OFFSET 19.7459 -1.48035 6.0001
          CHANNELS 6 Xposition Yposition Zposition Zrotation Xrotation Yrotation
          JOINT LeftArm
          {
            OFFSET 11.2841 1.8e-05 -2e-05
            CHANNELS 6 Xposition Yposition Zposition Zrotation Xrotation Yrotation
            JOINT LeftForeArm
            {
              OFFSET 33 -1.3e-05 1.9e-05
              CHANNELS 6 Xposition Yposition Zposition Zrotation Xrotation Yrotation
              JOINT LeftHand
              {
                OFFSET 25.2 3.2e-05 1.1e-05
                CHANNELS 6 Xposition Yposition Zposition Zrotation Xrotation Yrotation
                End Site
                {
                  OFFSET 0 0 0
                }
              }
            }
          }
        }
        JOINT RightShoulder
        {
          OFFSET 19.7461 -1.48036 -6.00008
          CHANNELS 6 Xposition Yposition Zposition Zrotation Xrotation Yrotation
          JOINT RightArm
          {
            OFFSET 11.2841 0 0
            CHANNELS 6 Xposition Yposition Zposition Zrotation Xrotation Yrotation
            JOINT RightForeArm
            {
              OFFSET 33.0001 1.6e-05 0
              CHANNELS 6 Xposition Yposition Zposition Zrotation Xrotation Yrotation
              JOINT RightHand
              {
                OFFSET 25.1998 0.000123 0.000432
                CHANNELS 6 Xposition Yposition Zposition Zrotation Xrotation Yrotation
                End Site
                {
                  OFFSET 0 0 0
                }
              }
            }
          }
        }
      }
    }
  }
}
MOTION
Frames:	4
Frame Time:	0.0333333
-2.48518 88.1334 164.77 -87.7271 -1.84242 -176.746 0.103456 1.85784 10.5485 -26.9448 14.1471 172.663 43.5 -4.2e-05 1e-05 -50.4107 -2.7539 0.333661 42.3722 1.9e-05 2.84217e-14 71.7731 2.28725 1.6011 17.3 3.55271e-15 3e-06 21.4546 -1e-06 0.003093 0.103456 1.85782 -10.5485 6.02993 -13.9249 166.012 43.5 -2.7e-05 4e-06 -40.2145 13.4067 6.9497 42.3723 0 1e-05 82.5021 9.40857 -9.0106 17.3 -6e-06 1.7e-05 21.4546 -1.9e-05 -0.003116 6.90197 -2.60373 -3e-06 10.2722 1.20696 0.195166 12.5881 1e-05 8e-06 10.5023 2.56735 0.184896 12.3432 -1.8e-05 -5e-06 10.1472 2.73015 0.0424515 25.8329 2.3e-05 7e-06 4.69243 -2.27866 -9.83129 11.7666 -8e-06 -6e-06 -23.9967 -1.61449 6.38427 19.7459 -1.48035 6.0001 -170.287 0.336315 -84.6711 11.2841 1.8e-05 -2e-05 -9.32239 0.280033 58.0116 33 -1.3e-05 1.9e-05 -111.213 -23.1992 -12.9069 25.2 3.2e-05 1.1e-05 -19.2277 37.2402 -4.2331 19.7461 -1.48036 -6.00008 -175.81 5.80758 81.2939 11.2841 1.42109e-14 -1e-06 -27.9 -4.22033 -46.5442 33.0001 1.6e-05 -1e-06 -115.697 -7.09156 23.3216 25.1998 0.000123 0.000432 -21.507 -15.1536 12.9974 
3.16826 89.6761 164.684 -87.9622 -5.05097 -176.398 0.103456 1.85784 10.5485 -22.4175 15.0718 170.082 43.5 -4.2e-05 1e-05 -33.5416 -3.29463 -2.32702 42.3722 1.9e-05 0 66.316 1.77885 -0.367864 17.3 7.10543e-15 3e-06 21.4546 -1e-06 0.003093 0.103456 1.85782 -10.5485 8.71472 -14.8955 165.581 43.5 -2.7e-05 4e-06 -39.7931 12.91 7.97786 42.3723 0 1e-05 71.5317 6.6355 -8.31773 17.3 -6e-06 1.7e-05 21.4546 -1.9e-05 -0.003116 6.90197 -2.60373 -3e-06 9.96107 1.34969 0.12095 12.5881 1e-05 8e-06 9.87975 2.83011 0.0169049 12.3432 -1.8e-05 -5e-06 9.52225 2.97254 -0.141465 25.8329 2.3e-05 7e-06 4.3046 -2.63645 -9.62301 11.7666 -8e-06 -6e-06 -23.2214 -2.0023 6.34215 19.7459 -1.48035 6.0001 -169.125 0.0300234 -84.5819 11.2841 1.8e-05 -2e-05 -9.93203 3.34991 57.5533 33 -1.3e-05 1.9e-05 -112.284 -23.8174 -14.0341 25.2 3.2e-05 1.1e-05 -19.855 37.4759 -3.81631 19.7461 -1.48036 -6.00008 -175.707 6.27679 81.716 11.2841 0 -1e-06 -29.2163 -7.10023 -47.2109 33.0001 1.6e-05 -1e-06 -117.018 -6.97786 23.4054 25.1998 0.000123 0.000432 -21.7054 -15.9725 13.4504 
8.96308 90.6077 164.415 -87.3459 -8.00047 -176.081 0.103456 1.85784 10.5485 -15.4627 16.6272 166.895 43.5 -4.2e-05 1e-05 -19.5619 -4.76075 -4.18945 42.3722 1.9e-05 -2.84217e-14 58.9965 2.19069 -2.39125 17.3 -1.42109e-14 3e-06 21.4546 -1e-06 0.003093 0.103456 1.85782 -10.5485 8.64055 -15.8191 163.475 43.5 -2.7e-05 4e-06 -44.8996 12.0306 9.13218 42.3723 -7.10543e-15 1e-05 61.3983 1.47742 -6.307 17.3 -6e-06 1.7e-05 21.4546 -1.9e-05 -0.003116 6.90197 -2.60373 -3e-06 9.77409 1.43838 0.109707 12.5881 1e-05 8e-06 9.50468 3.00039 -0.0174666 12.3432 -1.8e-05 -5e-06 9.14533 3.13463 -0.186323 25.8329 2.3e-05 7e-06 3.77571 -2.94859 -9.43244 11.7666 -8e-06 -6e-06 -21.9475 -2.16652 6.01446 19.7459 -1.48035 6.0001 -167.585 0.3784 -84.0959 11.2841 1.8e-05 -2e-05 -8.89777 4.84479 57.9495 33 -1.3e-05 1.9e-05 -113.443 -24.1803 -14.7954 25.2 3.2e-05 1.1e-05 -18.7827 36.8226 -3.24362 19.7461 -1.48036 -6.00008 -175.945 6.92048 82.3411 11.2841 0 -1e-06 -30.6821 -10.0238 -47.8892 33.0001 1.6e-05 -1e-06 -116.515 -7.93148 23.5153 25.1998 0.000123 0.000432 -21.9156 -17.8257 14.2802 
14.7025 90.4806 164.118 -85.8097 -10.9411 -175.703 0.103456 1.85784 10.5485 -9.21252 18.7917 164.355 43.5 -4.2e-05 1e-05 -14.758 -6.53106 -5.51972 42.3722 1.9e-05 -2.84217e-14 56.0865 2.65029 -2.85142 17.3 0 3e-06 21.4546 -1e-06 0.003093 0.103456 1.85782 -10.5485 7.11892 -15.8461 161.001 43.5 -2.7e-05 4e-06 -53.4559 11.9514 9.36154 42.3723 0 1e-05 55.0794 -7.84995 -3.8383 17.3 -6e-06 1.7e-05 21.4546 -1.9e-05 -0.003116 6.90197 -2.60373 -3e-06 9.83625 1.40488 0.0978382 12.5881 1e-05 8e-06 9.62993 2.93274 -0.0364209 12.3432 -1.8e-05 -5e-06 9.27144 3.06787 -0.201069 25.8329 2.3e-05 7e-06 3.25262 -2.87884 -9.35829 11.7666 -8e-06 -6e-06 -21.2577 -2.05022 5.83676 19.7459 -1.48035 6.0001 -165.765 1.33104 -83.6601 11.2841 1.8e-05 -2e-05 -6.30461 4.38823 59.0555 33 -1.3e-05 1.9e-05 -114.771 -24.5133 -15.2433 25.2 3.2e-05 1.1e-05 -16.1207 35.6894 -2.80578 19.7461 -1.48036 -6.00008 -176.544 7.5249 83.1816 11.2841 -1.42109e-14 -1e-06 -32.0279 -12.3447 -48.4945 33.0001 1.6e-05 -1e-06 -115.18 -8.34619 23.8869 25.1998 0.000123 0.000432 -22.261 -18.8799 14.4964 
